<?xml version="1.0" standalone="no"?><!DOCTYPE svg PUBLIC "-//W3C//DTD SVG 1.1//EN" "http://www.w3.org/Graphics/SVG/1.1/DTD/svg11.dtd"><svg class="icon" width="200px" height="31.95px" viewBox="0 0 6411 1024" version="1.1" xmlns="http://www.w3.org/2000/svg"><path fill="#333333" d="M2899.522783 793.644522c-41.850435 39.802435-87.974957 59.213913-140.866783 59.213913-56.275478 0-103.201391-20.613565-143.493565-62.953739-40.559304-42.607304-60.282435-90.957913-60.282435-147.945739 0-56.987826 19.233391-105.293913 58.768696-147.545044 39.17913-41.850435 86.817391-62.19687 145.541565-62.19687 58.768696 0 106.050783 19.678609 144.517565 60.104348 38.733913 40.826435 57.566609 90.468174 57.566609 151.819131 0 60.994783-20.21287 109.924174-61.796174 149.504z m231.869217-200.971131V504.653913h-47.816348V98.03687h-126.664348V384.089043C2900.635826 332.666435 2833.586087 306.621217 2757.008696 306.621217c-91.937391 0-170.963478 32.946087-234.807653 97.992348-63.799652 65.001739-96.166957 144.250435-96.166956 235.698087 0 91.358609 31.966609 170.785391 94.96487 236.054261 63.131826 65.446957 140.688696 98.660174 230.533565 98.660174 75.820522 0 144.740174-27.024696 205.378782-80.495304v60.861217h126.664348v-362.76313h47.816348zM3103.165217 421.62087h53.648696V368.061217h-53.604174zM3152.985043 530.120348h49.552696v-49.552696H3153.029565zM3262.419478 236.098783h31.254261v-31.254261h-31.254261zM3392.601043 129.246609h12.466087v-12.466087h-12.466087zM3328.667826 133.565217h33.257739v-33.30226h-33.257739zM3396.741565 98.793739h16.384V82.365217h-16.384zM3323.993043 189.217391h21.548522v-21.548521h-21.548522zM3154.67687 616.848696h25.377391v-25.377392h-25.377391zM3261.662609 461.467826h80.272695V381.239652H3261.662609zM3196.393739 359.067826h72.614957V286.408348h-72.614957zM3283.70087 657.630609h34.237217v-34.192696h-34.237217zM3199.554783 191.933217h50.354087V141.57913h-50.354087zM3110.422261 770.270609h33.03513v-33.079652h-33.03513zM3314.509913 742.088348h57.522087v-57.566609h-57.522087zM3175.958261 749.211826h87.974956v-87.974956h-87.974956zM3228.93913 597.170087h84.413218v-84.457739h-84.413218zM3232.589913 848.272696h60.460522v-60.460522h-60.460522zM3315.489391 529.363478h30.274783v-30.363826h-30.274783zM3206.455652 430.614261h11.486609v-11.486609h-11.486609zM3315.088696 878.992696h32.055652v-32.100174h-32.055652zM3376.706783 904.325565h21.058782v-21.103304h-21.058782zM3589.787826 151.908174h20.034783v-19.945739h-20.034783v19.945739z m-48.350609-88.286609h20.034783v-20.034782h-20.034783v20.034782zM3483.826087 133.431652h49.730783V83.745391H3483.826087v49.686261z m-15.315478 81.608348h28.493913v-28.493913h-28.493913v28.493913z m24.442434 644.986435h47.371131v-47.415652h-47.371131v47.415652z m105.160348 51.289043h20.034783v-19.945739h-20.034783v19.945739zM3427.283478 104.670609h20.034783v-20.034783h-20.034783v20.034783z m29.206261-45.323131v17.14087h-34.816l-3.784348 2.137043V144.695652h-32.812521v65.758609h-28.761044v40.025043h-53.292522v60.371479h53.871305v70.789565h33.836521V433.819826h-21.593043v80.228174h24.709565v32.990609h-49.107478v119.184695h49.374609v53.648696h23.774608v39.624348h-75.909565v47.193043h36.59687v28.226783h18.342956v22.617043h20.969739v45.590261h13.801739v10.061913h22.617044v17.586087c11.442087 4.897391 23.151304 9.037913 35.08313 12.377044 43.631304 12.198957 104.225391 18.253913 182.049392 18.253913h326.077217v-167.223652h-286.72c-79.649391 0-138.24-15.003826-175.727304-44.966957-53.381565-43.097043-80.094609-134.010435-80.094609-272.695652 0-103.067826 17.318957-174.302609 52.001391-213.704348 41.22713-47.727304 106.852174-71.635478 196.786087-71.635478h293.754435V23.908174h-317.662609c-90.913391 0-165.353739 11.798261-223.365565 35.439304zM3440.016696 72.481391h9.216v-9.216h-9.216zM3431.869217 931.57287h11.486609v-11.486609h-11.486609zM4536.453565 792.84313c-40.336696 40.381217-86.995478 59.970783-142.692174 59.970783-56.275478 0-103.245913-20.390957-143.538087-62.374956-40.514783-42.25113-60.237913-90.601739-60.237913-147.901218 0-57.433043 19.411478-105.828174 59.258435-148.034782 39.579826-41.939478 86.683826-62.330435 143.983304-62.330435 57.388522 0 104.537043 19.767652 144.161392 60.371478 39.713391 40.737391 59.035826 89.978435 59.035826 150.483478 0 60.549565-19.589565 109.523478-59.970783 149.815652z m55.563131-408.798608c-56.275478-51.378087-123.325217-77.378783-199.902609-77.378783-91.937391 0-170.963478 32.946087-234.807652 97.992348-63.75513 65.001739-96.122435 144.072348-96.122435 235.119304 0 91.046957 32.100174 170.473739 95.454609 236.054261 63.532522 65.892174 141.133913 99.283478 230.578087 99.283478 75.50887 0 144.250435-27.069217 204.8-80.495304v60.816696h126.664347V321.892174h-126.664347v62.107826zM5280.01113 342.995478a232.937739 232.937739 0 0 0-127.109565-36.329739c-71.368348 0-135.301565 25.644522-190.642087 76.399304V321.981217h-128.845913V955.436522h128.845913v-239.749565c0-76.621913 3.294609-127.910957 9.794783-152.397914a186.946783 186.946783 0 0 1 34.237217-67.405913 178.309565 178.309565 0 0 1 59.213913-49.41913 150.750609 150.750609 0 0 1 69.36487-17.497043c23.863652 0 44.076522 3.517217 60.193391 10.418086 15.582609 6.722783 28.004174 16.65113 38.021565 30.363827 10.551652 14.336 18.69913 32.367304 24.264348 53.604173 5.698783 22.038261 8.637217 65.446957 8.637218 128.979479v303.104h127.732869v-324.919652c0-84.324174-9.126957-145.67513-27.91513-187.525566a225.502609 225.502609 0 0 0-85.793392-99.995826M5948.772174 792.84313c-40.336696 40.381217-86.995478 59.970783-142.692174 59.970783-56.275478 0-103.245913-20.390957-143.493565-62.374956-40.559304-42.25113-60.282435-90.601739-60.282435-147.901218 0-57.433043 19.411478-105.828174 59.258435-148.034782 39.624348-41.939478 86.683826-62.330435 143.983304-62.330435 57.388522 0 104.537043 19.767652 144.161391 60.371478 39.713391 40.737391 59.035826 89.978435 59.035827 150.483478 0 60.549565-19.589565 109.523478-59.970783 149.815652z m55.56313-408.798608c-56.275478-51.378087-123.325217-77.378783-199.902608-77.378783-91.937391 0-170.963478 32.946087-234.807653 97.992348-63.75513 65.001739-96.122435 144.072348-96.122434 235.119304 0 91.046957 32.144696 170.473739 95.49913 236.054261 63.488 65.892174 141.04487 99.283478 230.533565 99.283478 75.50887 0 144.250435-27.069217 204.8-80.495304v60.816696h126.664348V321.892174h-126.664348v62.107826zM6234.824348 955.436522h127.777391V98.03687h-127.777391zM842.217739 955.436522h127.73287V98.03687h-127.73287zM1514.451478 790.349913c-39.17913 40.559304-85.303652 60.282435-140.866782 60.282435-57.700174 0-104.269913-19.500522-142.336-59.570087-38.377739-40.425739-56.987826-88.286609-56.987826-146.387478 0-58.10087 19.322435-106.852174 59.213913-149.058783 39.535304-41.939478 85.214609-62.330435 139.575652-62.330435 54.405565 0 100.262957 20.390957 140.198956 62.330435 40.20313 42.295652 59.748174 90.824348 59.748174 148.524522 0 57.655652-19.144348 105.516522-58.546087 146.209391M1373.584696 306.665739c-91.581217 0-170.25113 33.213217-233.739131 98.660174-63.398957 65.26887-95.543652 144.695652-95.543652 236.098783s31.966609 170.651826 94.96487 235.564521c63.131826 65.090783 141.935304 98.081391 234.317913 98.081392 92.382609 0 171.052522-32.990609 233.828174-98.125913 62.642087-64.912696 94.386087-144.161391 94.386087-235.52 0-91.40313-32.100174-170.829913-95.499131-236.098783-63.532522-65.446957-141.846261-98.660174-232.71513-98.660174M2209.792 561.686261c0 76.666435-3.294609 127.955478-9.794783 152.397913a187.570087 187.570087 0 0 1-34.237217 67.450435 178.576696 178.576696 0 0 1-59.213913 49.374608 151.106783 151.106783 0 0 1-69.36487 17.541566c-23.863652 0-44.121043-3.561739-60.193391-10.462609a90.37913 90.37913 0 0 1-38.021565-30.363826c-10.551652-14.380522-18.69913-32.411826-24.264348-53.604174-5.698783-21.904696-8.637217-65.313391-8.637217-128.979478V321.936696h-127.777392v324.964174c0 84.324174 9.171478 145.67513 27.915131 187.481043a225.814261 225.814261 0 0 0 85.837913 100.040348c37.843478 24.086261 80.62887 36.285217 127.109565 36.285217 71.368348 0 135.346087-25.644522 190.642087-76.399304v61.128348h128.845913V321.892174h-128.845913v239.749565zM552.648348 105.516522h45.545739V59.970783h-45.545739zM579.940174 180.313043h59.926261V120.386783h-59.926261zM661.23687 206.491826h28.048695v-28.048696h-28.048695zM756.513391 191.577043h20.925218v-20.925217h-20.925218zM761.09913 88.954435h12.466087v-12.510609h-12.466087zM683.364174 166.555826h48.439652V118.116174h-48.439652zM659.500522 78.002087h61.261913V16.740174h-61.261913zM770.493217 53.248h34.459826V18.788174h-34.459826zM617.561043 89.933913h16.829218v-16.829217h-16.829218zM588.53287 36.10713h36.10713v-36.062608h-36.10713zM552.648348 869.64313h45.545739V824.097391h-45.545739zM579.940174 944.484174h59.926261v-59.970783h-59.926261zM661.23687 970.573913h28.048695v-28.048696h-28.048695zM756.513391 955.703652h20.925218v-20.925217h-20.925218zM761.09913 853.036522h12.466087v-12.466087h-12.466087zM683.364174 930.726957h48.439652v-48.439653h-48.439652zM493.122783 864.256h23.106782v-23.106783h-23.106782v23.151305z m-48.128 63.933217h51.73426v-51.689739H444.994783v51.689739z m-8.102957-90.112h37.264696v-37.264695h-37.264696v37.264695z m-76.844522 56.32h64.957218v-64.912695H360.047304v64.912695z m-13.356521 54.138435h21.815652v-21.815652h-21.815652v21.815652z m-38.466783-112.64h26.980174v-26.980174h-26.980174v26.980174z m-34.771478 85.793391h35.216695v-35.261217h-35.216695v35.261217z m-38.466783-140.866782h21.815652v-21.815652h-21.815652v21.815652z m3.962435 72.882087h15.003826v-15.048348h-15.003826v15.048348zM221.851826 97.502609h15.003826v-15.048348h-15.003826v15.048348z m4.541217 131.561739h10.818783v-10.818783h-10.818783v10.818783zM273.452522 157.606957h35.216695v-35.216696h-35.216695v35.216696z m34.726956-85.837914h27.024696v-26.980173h-26.980174v26.980173z m38.511305 112.64h21.815652v-21.77113h-21.815652v21.815652z m13.356521-54.093913h64.957218V65.357913H360.047304v64.912696zM436.891826 73.906087h37.264696V36.685913h-37.264696v37.264696z m8.102957 90.156522h51.73426V112.37287H444.994783v51.73426z m48.128-63.977739h23.106782V77.022609h-23.106782v23.106782z m46.391652 708.563478h19.099826v-19.945739h-28.850087v3.828869h-37.264696v-3.828869h-16.027826c-79.649391 0-138.195478-15.003826-175.682782-44.966957-53.426087-43.097043-80.13913-134.010435-80.139131-272.695652 0-103.067826 17.363478-174.302609 52.001391-213.659826 41.271652-47.771826 106.852174-71.68 196.786087-71.68h50.621218v-28.226783h38.555826V123.325217h-19.144348V44.566261h19.144348V18.476522h-28.850087V28.493913h-37.264696V18.476522h-46.970435c-66.782609 0-124.571826 6.455652-173.59026 19.233391V48.973913h-21.815653V43.942957a346.37913 346.37913 0 0 0-51.956869 20.925217c-63.710609 32.812522-112.64 85.971478-146.877218 159.521391C17.096348 297.984 0 386.270609 0 489.338435c0 177.107478 44.966957 304.528696 134.90087 382.352695 36.552348 31.833043 76.577391 53.871304 120.208695 66.070261 43.542261 12.154435 104.18087 18.253913 182.00487 18.253913h82.944v-34.326261h38.555826v-34.281739h-19.144348v-78.714434zM659.500522 842.128696h61.261913v-61.261913h-61.261913zM770.493217 817.41913h34.459826v-34.504347h-34.459826zM617.561043 854.016h16.829218v-16.784696h-16.829218zM588.53287 800.233739h36.10713v-36.062609h-36.10713z" /></svg>